<svg width="88" height="88" viewBox="0 0 88 88" fill="none" xmlns="http://www.w3.org/2000/svg">
<circle cx="44" cy="44" r="44" fill="#FB3640"/>
<path d="M31.98 57.504C37.452 57.504 41.34 54.624 41.34 49.764C41.34 44.436 37.056 43.104 33.24 41.952C29.316 40.764 28.704 39.972 28.704 38.82C28.704 37.812 29.604 36.912 31.404 36.912C33.708 36.912 34.896 38.028 35.76 39.828L40.62 36.984C38.784 33.276 35.544 31.296 31.404 31.296C27.048 31.296 22.944 34.104 22.944 38.964C22.944 43.788 26.616 45.588 30.36 46.632C34.14 47.676 35.58 48.288 35.58 49.836C35.58 50.808 34.896 51.888 32.16 51.888C29.316 51.888 27.768 50.484 26.868 48.396L21.9 51.276C23.304 54.984 26.688 57.504 31.98 57.504ZM59.887 57H66.187L57.619 31.8H50.275L41.707 57H48.007L49.267 53.04H58.627L59.887 57ZM50.995 47.64L53.947 38.388L56.899 47.64H50.995Z" fill="#FDFAF6"/>
</svg>
